# File created by Blade
# Date/Time:  Tue Jan 27 20:12:02 2015
# Frame Rate: 120.000 fps
#------------------------------------------------------
:FULLY-SPECIFIED
:DEGREES
2690
root 8.200069 32.357260 -3.940805 2.837287 -19.541684 -3.286502
Spine 5.405025 16.732009 -5.583883
Head 34.265342 -10.476776 1.011042
LeftShoulder -18.122920 4.408269 30.156061
LeftArm -22.476993 -40.957772 -61.327699
LeftForeArm -13.553045 -0.000000 95.745822
LeftHand 17.616414 0.000000 4.995358
LeftHandThumb1 -26.253704 0.000000 33.147579
RightShoulder -19.320525 -24.426931 -22.558632
RightArm 7.822317 -37.208403 91.942856
RightForeArm -23.627960 -0.000000 102.822867
RightHand 18.910405 -0.000000 -0.891307
RightHandThumb1 -24.326973 -0.000000 -32.862282
LeftUpLeg 4.552459 8.039739 -6.171141
LeftLeg -4.056006 -0.000000 0.000000
LeftFoot -18.716450 24.733615 -17.507553
LeftToeBase 21.784535 -0.000000 -0.000000
RightUpLeg 21.219755 -65.302076 -32.650532
RightLeg 81.298225 -0.000000 -0.000000
RightFoot 24.344842 -25.813212 17.303399
RightToeBase 15.815921 -0.000000 -0.000000
2691
root 8.204792 32.356348 -3.939216 2.842379 -19.553406 -3.289189
Spine 5.393636 16.733612 -5.564600
Head 34.239107 -10.457043 0.988141
LeftShoulder -18.115106 4.372319 30.148761
LeftArm -22.568873 -40.991945 -61.274485
LeftForeArm -13.567993 -0.000000 95.757532
LeftHand 17.660766 0.000000 4.960968
LeftHandThumb1 -26.253704 0.000000 33.147579
RightShoulder -19.329992 -24.415375 -22.556642
RightArm 7.844952 -37.224047 91.907591
RightForeArm -23.665840 0.000000 102.823809
RightHand 18.921727 -0.000000 -0.929356
RightHandThumb1 -24.326973 -0.000000 -32.862282
LeftUpLeg 4.547973 8.018713 -6.181715
LeftLeg -4.056877 -0.000000 0.000000
LeftFoot -18.730631 24.755724 -17.532137
LeftToeBase 21.722918 -0.000000 -0.000000
RightUpLeg 21.303788 -65.325530 -32.759668
RightLeg 81.268605 -0.000000 -0.000000
RightFoot 24.298406 -25.804348 17.360664
RightToeBase 16.010718 -0.000000 -0.000000
2692
root 8.209078 32.355598 -3.936975 2.850705 -19.567376 -3.290918
Spine 5.372103 16.719881 -5.546864
Head 34.224900 -10.461040 0.941412
LeftShoulder -18.127498 4.397600 30.114354
LeftArm -22.585247 -41.048884 -61.258010
LeftForeArm -13.547968 0.000000 95.757258
LeftHand 17.654908 -0.000000 4.966428
LeftHandThumb1 -26.253704 0.000000 33.147579
RightShoulder -19.313579 -24.407697 -22.571669
RightArm 7.867713 -37.231505 91.891515
RightForeArm -23.652032 -0.000000 102.824710
RightHand 18.882108 -0.000000 -0.837880
RightHandThumb1 -24.326973 -0.000000 -32.862282
LeftUpLeg 4.543059 8.019666 -6.191866
LeftLeg -4.059183 -0.000000 0.000000
LeftFoot -18.728334 24.781614 -17.505602
LeftToeBase 21.720621 -0.000000 -0.000000
RightUpLeg 21.429328 -65.357311 -32.920067
RightLeg 81.251869 -0.000000 -0.000000
RightFoot 24.197941 -25.786289 17.431607
RightToeBase 16.387461 -0.000000 -0.000000
2693
root 8.213268 32.354678 -3.936062 2.860074 -19.570778 -3.292259
Spine 5.363338 16.704996 -5.545935
Head 34.176026 -10.374470 0.965114
LeftShoulder -18.157465 4.394655 30.107061
LeftArm -22.607063 -41.098653 -61.245833
LeftForeArm -13.545153 -0.000000 95.752793
LeftHand 17.671684 0.000000 4.889111
LeftHandThumb1 -26.253704 0.000000 33.147579
RightShoulder -19.326102 -24.381132 -22.558805
RightArm 7.887366 -37.239516 91.864722
RightForeArm -23.653831 -0.000000 102.820539
RightHand 18.869244 0.000000 -0.873534
RightHandThumb1 -24.326973 -0.000000 -32.862282
LeftUpLeg 4.530040 8.007418 -6.201404
LeftLeg -4.053807 -0.000000 0.000000
LeftFoot -18.740522 24.793540 -17.498494
LeftToeBase 21.748062 -0.000000 -0.000000
RightUpLeg 21.518050 -65.382675 -33.017903
RightLeg 81.216399 -0.000000 -0.000000
RightFoot 24.180318 -25.762833 17.396070
RightToeBase 16.349604 -0.000000 -0.000000
2694
root 8.217304 32.354059 -3.934994 2.874552 -19.582012 -3.290717
Spine 5.343887 16.709250 -5.546920
Head 34.134635 -10.339470 0.963203
LeftShoulder -18.170633 4.392413 30.088939
LeftArm -22.625584 -41.149843 -61.223932
LeftForeArm -13.526774 0.000000 95.748812
LeftHand 17.654057 -0.000000 4.855151
LeftHandThumb1 -26.253704 0.000000 33.147579
RightShoulder -19.337385 -24.361864 -22.548091
RightArm 7.907964 -37.258023 91.844784
RightForeArm -23.654750 0.000000 102.806282
RightHand 18.871464 -0.000000 -0.900774
RightHandThumb1 -24.326973 -0.000000 -32.862282
LeftUpLeg 4.515853 7.979786 -6.214865
LeftLeg -4.055651 -0.000000 0.000000
LeftFoot -18.755469 24.827462 -17.522203
LeftToeBase 21.711186 -0.000000 -0.000000
RightUpLeg 21.563014 -65.392420 -33.062793
RightLeg 81.181539 -0.000000 -0.000000
RightFoot 24.106298 -25.758607 17.434407
RightToeBase 16.372272 -0.000000 -0.000000
